<svg xmlns="http://www.w3.org/2000/svg" width="222.767" height="57.175" viewBox="0 0 222.767 57.175">
  <g id="Mahindra_Tech_Vertical_Logo_Lockup_CMYK" transform="translate(-60.8 -60)">
    <g id="Group_487" data-name="Group 487" transform="translate(60.833 60)">
      <path id="Path_588" data-name="Path 588" d="M82.707,65.4H74.623V80.652H68.984V65.4H60.9V60.8H82.74v4.6Z" transform="translate(-60.9 -60.539)" fill="#4d4d4f"/>
      <path id="Path_589" data-name="Path 589" d="M136.1,80.684V60.8h19.069v4.3H141.707v3.39h12.615V72.5H141.707v3.879h14.114v4.27H136.1Z" transform="translate(-111.587 -60.539)" fill="#4d4d4f"/>
      <path id="Path_590" data-name="Path 590" d="M204,70.627a11.59,11.59,0,0,1,1.434-6.063,8.631,8.631,0,0,1,4.3-3.455A19.225,19.225,0,0,1,216.778,60c.913,0,1.76.033,2.51.065a19.759,19.759,0,0,1,2.086.2c.652.1,1.271.2,1.891.326s1.239.293,1.923.456l-1.141,4.075c-.848-.163-1.63-.293-2.412-.424-.782-.1-1.532-.2-2.249-.228-.75-.065-1.467-.1-2.217-.1a14.224,14.224,0,0,0-3.325.359,5.343,5.343,0,0,0-2.282,1.108,4.49,4.49,0,0,0-1.3,1.923,8.122,8.122,0,0,0-.424,2.836,6.7,6.7,0,0,0,.424,2.543,3.912,3.912,0,0,0,1.3,1.76,5.534,5.534,0,0,0,2.217.978,13.02,13.02,0,0,0,3.194.326,33.141,33.141,0,0,0,3.944-.228c1.336-.163,2.64-.391,3.846-.652l1.01,3.944c-.652.2-1.3.359-1.956.522a18.207,18.207,0,0,1-2.151.391c-.782.1-1.6.2-2.51.261s-1.923.1-3.032.1a22.649,22.649,0,0,1-5.215-.554,9.875,9.875,0,0,1-3.781-1.728,7.409,7.409,0,0,1-2.314-3.032A11.807,11.807,0,0,1,204,70.627Z" transform="translate(-157.354 -60)" fill="#4d4d4f"/>
      <path id="Path_591" data-name="Path 591" d="M280.3,80.684V60.8h5.672v8.475h10.92V60.8h5.672V80.684h-5.672V73.9h-10.92v6.748H280.3Z" transform="translate(-208.782 -60.539)" fill="#4d4d4f"/>
    </g>
    <path id="Path_592" data-name="Path 592" d="M108.554,159.537h15.158a6.152,6.152,0,0,1,6.259,6.03v13.821H107.283a3.772,3.772,0,0,1-3.814-3.683v-4.792a3.494,3.494,0,0,1,3.553-3.423H119.6l-1.336,2.8h-9.258a.8.8,0,0,0-.848.75v3.781a.848.848,0,0,0,.848.75h16.07v-9.062a3.224,3.224,0,0,0-3.292-3.1h-15.06Zm124.618-7.2v27.055h-22.1a3.772,3.772,0,0,1-3.814-3.683V165.567a6.152,6.152,0,0,1,6.259-6.03h12.615l-1.858,3.846h-8.8a3.224,3.224,0,0,0-3.292,3.1v8.312a.848.848,0,0,0,.848.75h15.288V152.333Zm-77.678,27.055h4.89V165.567a6.152,6.152,0,0,0-6.259-6.03h-10.4l-1.858,3.846h10.3a3.224,3.224,0,0,1,3.292,3.1v12.908Zm-20.373-27.055v27.055h4.89V152.333ZM94.277,179.388h4.89V165.567a6.152,6.152,0,0,0-6.259-6.03H60.8v19.852h4.89V164.133a.848.848,0,0,1,.848-.75H76.642a.8.8,0,0,1,.848.75v15.255h4.89V164.133a.848.848,0,0,1,.848-.75h7.66a3.224,3.224,0,0,1,3.292,3.1v12.908Zm164.451-19.852H246.439a6.152,6.152,0,0,0-6.259,6.03v13.821h4.89V166.48a3.224,3.224,0,0,1,3.292-3.1h8.475Zm-62.684,0a6.152,6.152,0,0,1,6.259,6.03v13.821h-4.89V166.48a3.224,3.224,0,0,0-3.292-3.1H182.354v16.005h-4.89V159.569C183.625,159.569,189.851,159.537,196.044,159.537Zm-29.565,1.271,4.89-2.8v21.384h-4.89Zm4.89-5.574V152.3h-4.89v5.737Zm90.782,4.3h15.158a6.152,6.152,0,0,1,6.259,6.03v13.821H260.88a3.772,3.772,0,0,1-3.814-3.683v-4.792a3.494,3.494,0,0,1,3.553-3.423H273.2l-1.336,2.8h-9.258a.8.8,0,0,0-.848.75v3.781a.848.848,0,0,0,.848.75h16.038v-9.062a3.224,3.224,0,0,0-3.292-3.1h-15.06Z" transform="translate(0 -62.213)" fill="#e31937" fill-rule="evenodd"/>
  </g>
</svg>
