<svg xmlns="http://www.w3.org/2000/svg" width="936.637" height="353.026" viewBox="0 0 936.637 353.026">
  <g id="Group_481" data-name="Group 481" transform="translate(0 0)">
    <path id="Path_402" data-name="Path 402" d="M0,0V340.915L936.637,0Z" transform="translate(0 0)" fill="#fff"/>
    <path id="Path_403" data-name="Path 403" d="M66.809,47.692h-8.9V64.5H51.691V47.692h-8.9v-5.06h24.02Z" transform="translate(36.966 36.83)" fill="#4d4d4f"/>
    <path id="Path_404" data-name="Path 404" d="M57.278,64.5V42.631h20.99v4.747H63.462V51.1h13.9v4.4h-13.9v4.28H78.987V64.5Z" transform="translate(49.484 36.83)" fill="#4d4d4f"/>
    <path id="Path_405" data-name="Path 405" d="M70.341,54.177a12.519,12.519,0,0,1,1.594-6.669,9.389,9.389,0,0,1,4.731-3.81A21.2,21.2,0,0,1,84.4,42.464q1.529,0,2.749.062t2.28.2q1.062.14,2.078.343t2.108.516l-1.249,4.466q-1.376-.28-2.641-.453t-2.483-.265q-1.219-.1-2.436-.093a15.012,15.012,0,0,0-3.655.39,6.237,6.237,0,0,0-2.5,1.2,4.818,4.818,0,0,0-1.437,2.11,9.138,9.138,0,0,0-.47,3.107,7.873,7.873,0,0,0,.453,2.811,4.269,4.269,0,0,0,1.422,1.922,6.568,6.568,0,0,0,2.436,1.092,14.981,14.981,0,0,0,3.53.36,36.652,36.652,0,0,0,4.326-.265,38.418,38.418,0,0,0,4.233-.734l1.124,4.341q-1.062.313-2.155.563c-.731.166-1.515.308-2.36.421s-1.763.209-2.764.281-2.114.11-3.342.11a24.174,24.174,0,0,1-5.732-.609,11.238,11.238,0,0,1-4.17-1.89A7.941,7.941,0,0,1,71.2,59.127a12.742,12.742,0,0,1-.859-4.951" transform="translate(60.769 36.685)" fill="#4d4d4f"/>
    <path id="Path_406" data-name="Path 406" d="M85.013,64.5V42.631h6.248v9.34h12.026v-9.34h6.246V64.5h-6.246V57.064H91.261V64.5Z" transform="translate(73.444 36.83)" fill="#4d4d4f"/>
    <path id="Path_407" data-name="Path 407" d="M95.327,68.22h16.688a6.783,6.783,0,0,1,6.885,6.636V90.051H93.948a4.13,4.13,0,0,1-4.194-4.041V80.731a3.844,3.844,0,0,1,3.9-3.76h13.841l-1.467,3.075H95.844a.905.905,0,0,0-.939.809v4.153a.905.905,0,0,0,.939.811H113.51V75.857a3.552,3.552,0,0,0-3.635-3.405H93.307Zm137.142-7.942V90.051H208.134a4.132,4.132,0,0,1-4.194-4.041V74.856a6.785,6.785,0,0,1,6.885-6.636h13.866l-2.043,4.231h-9.683a3.551,3.551,0,0,0-3.633,3.405v9.152a.905.905,0,0,0,.939.811h16.807V60.278Zm-85.5,29.772h5.392V74.856a6.785,6.785,0,0,0-6.885-6.636h-11.45l-2.037,4.231h11.348a3.55,3.55,0,0,1,3.633,3.405ZM124.548,60.278V90.051h5.392V60.278ZM79.607,90.053H85v-15.2a6.785,6.785,0,0,0-6.885-6.636H42.789V90.053h5.39V73.262a.906.906,0,0,1,.941-.811H60.256a.906.906,0,0,1,.941.811v16.79h5.392V73.262a.9.9,0,0,1,.939-.811h8.445a3.551,3.551,0,0,1,3.633,3.405ZM260.6,68.22H247.071a6.785,6.785,0,0,0-6.885,6.636V90.051h5.392V75.857a3.55,3.55,0,0,1,3.633-3.405h9.342Zm-68.982,0a6.783,6.783,0,0,1,6.885,6.636V90.051h-5.39V75.857a3.551,3.551,0,0,0-3.633-3.405H176.527v17.6h-5.392V68.232q10.216,0,20.479-.011M159.053,69.6l5.39-3.07V90.051h-5.39Zm5.39-6.138V60.228h-5.39v6.3Zm99.9,4.759h16.688a6.783,6.783,0,0,1,6.885,6.636V90.051H262.968a4.13,4.13,0,0,1-4.194-4.041V80.731a3.844,3.844,0,0,1,3.9-3.76h13.843l-1.469,3.075H264.866a.906.906,0,0,0-.941.809v4.153a.906.906,0,0,0,.941.811H282.53V75.857a3.552,3.552,0,0,0-3.635-3.405H262.329Z" transform="translate(36.966 52.032)" fill="#e31837" fill-rule="evenodd"/>
    <path id="Path_408" data-name="Path 408" d="M422.059,100.485,0,254.106v12.11L422.059,112.6Z" transform="translate(0 86.811)" fill="#e31837"/>
  </g>
</svg>
